<svg width="120" height="143" viewBox="0 0 120 143" fill="none" xmlns="http://www.w3.org/2000/svg">
<path d="M28.1292 104.539H91.7391" stroke="white" stroke-width="3.75" stroke-linecap="round"/>
<path d="M24.9488 71.5195H59.9342M94.9197 71.5195H85.3782" stroke="white" stroke-width="3.75" stroke-linecap="round"/>
<path d="M116.675 30.1159C115.842 27.5212 113.139 26.1196 110.639 26.9855C108.14 27.8513 106.79 30.6567 107.624 33.2515L116.675 30.1159ZM97.4735 12.6335C99.7183 14.0661 102.656 13.3383 104.036 11.0081C105.416 8.67772 104.715 5.62729 102.471 4.1947L97.4735 12.6335ZM47.2121 137.527L47.1303 142.48H47.2121V137.527ZM72.6567 137.527V142.48L72.7388 142.479L72.6567 137.527ZM42.0296 10.4328H77.8397V0.52686H42.0296V10.4328ZM12.2447 33.2515L12.4725 32.5426L3.42168 29.407L3.19383 30.1159L12.2447 33.2515ZM101.281 42.3918H18.5881V52.2977H101.281V42.3918ZM13.8676 48.0622L23.4041 115.687L32.845 114.252L23.3085 46.6272L13.8676 48.0622ZM96.4647 115.687L106.002 48.0622L96.5607 46.6272L87.0243 114.252L96.4647 115.687ZM87.0243 114.252C86.2464 119.766 85.719 123.442 84.9907 126.166C84.298 128.756 83.5722 129.871 82.7631 130.596L89.0019 138.091C91.776 135.603 93.2218 132.416 94.1842 128.816C95.111 125.35 95.7236 120.946 96.4647 115.687L87.0243 114.252ZM3.19383 30.1159C2.2185 33.1505 1.3438 35.8454 0.899865 38.0772C0.444545 40.3661 0.251806 43.0121 1.42503 45.6245L10.0727 41.4384C10.1749 41.6659 9.95346 41.5423 10.2442 40.0807C10.5463 38.562 11.1924 36.5255 12.2447 33.2515L3.19383 30.1159ZM18.5881 42.3918C15.2636 42.3918 13.1984 42.3834 11.7151 42.2002C10.2877 42.0239 10.2449 41.7667 10.4203 41.9393L3.8583 49.1306C5.87384 51.113 8.35247 51.7607 10.5879 52.0368C12.7676 52.306 15.5067 52.2977 18.5881 52.2977V42.3918ZM1.42503 45.6245C2.0166 46.9417 2.84207 48.1311 3.8583 49.1306L10.4203 41.9393C10.2751 41.7966 10.1572 41.6266 10.0727 41.4384L1.42503 45.6245ZM107.624 33.2515C108.676 36.5255 109.323 38.562 109.625 40.0807C109.916 41.5423 109.694 41.6659 109.796 41.4384L118.444 45.6246C119.617 43.0122 119.425 40.3661 118.969 38.0772C118.525 35.8454 117.651 33.1505 116.675 30.1159L107.624 33.2515ZM101.281 52.2977C104.362 52.2977 107.101 52.306 109.281 52.0368C111.517 51.7607 113.995 51.113 116.011 49.1306L109.449 41.9393C109.624 41.7666 109.582 42.0239 108.154 42.2002C106.671 42.3834 104.605 42.3918 101.281 42.3918V52.2977ZM109.796 41.4384C109.711 41.6266 109.594 41.7966 109.449 41.9393L116.011 49.1306C117.027 48.1311 117.852 46.9416 118.444 45.6246L109.796 41.4384ZM77.8397 10.4328C83.7808 10.4328 87.8837 10.4387 91.0858 10.7745C94.1881 11.0998 96.013 11.7014 97.4735 12.6335L102.471 4.1947C99.3335 2.19251 95.9373 1.327 92.045 0.918739C88.2526 0.520983 83.5881 0.52686 77.8397 0.52686V10.4328ZM23.4041 115.687C24.1457 120.946 24.7579 125.35 25.6846 128.816C26.6473 132.416 28.093 135.603 30.8668 138.091L37.1059 130.596C36.2967 129.871 35.5711 128.756 34.8784 126.166C34.1498 123.442 33.6225 119.766 32.845 114.252L23.4041 115.687ZM42.0296 0.52686C36.2809 0.52686 31.6162 0.520983 27.8241 0.918739C23.9315 1.327 20.5356 2.19251 17.3986 4.1947L22.3956 12.6335C23.8559 11.7014 25.6812 11.0998 28.7831 10.7745C31.9854 10.4387 36.0883 10.4328 42.0296 10.4328V0.52686ZM12.4725 32.5426C14.3532 26.6914 15.6572 22.6527 16.9777 19.6054C18.2568 16.6535 19.3843 15.0464 20.6981 13.9032L14.5694 6.311C11.7471 8.76661 9.88133 11.8371 8.27626 15.5412C6.71254 19.1498 5.24137 23.7456 3.42168 29.407L12.4725 32.5426ZM17.3986 4.1947C16.4071 4.82749 15.4615 5.53484 14.5694 6.311L20.6981 13.9032C21.2333 13.4376 21.8007 13.0132 22.3956 12.6335L17.3986 4.1947ZM47.2942 132.574C40.5356 132.454 38.4427 131.796 37.1059 130.596L30.8668 138.091C35.151 141.935 40.7224 142.365 47.1303 142.48L47.2942 132.574ZM72.7388 142.479C79.1469 142.365 84.7178 141.935 89.0019 138.091L82.7631 130.596C81.4266 131.796 79.3332 132.454 72.5747 132.574L72.7388 142.479ZM47.2121 142.48L72.6567 142.48V132.574H47.2121V142.48Z" fill="white"/>
</svg>
