<svg width="57" height="44" viewBox="0 0 57 44" fill="none" xmlns="http://www.w3.org/2000/svg">
<path fill-rule="evenodd" clip-rule="evenodd" d="M0 21.8086C0 26.2777 1.21114 27.7828 3.63344 30.7929C8.47009 36.8031 16.5816 43.6172 28.5 43.6172C40.4184 43.6172 48.5298 36.8031 53.3665 30.7929C55.7887 27.7828 57 26.2777 57 21.8086C57 17.3395 55.7887 15.8345 53.3665 12.8244C48.5298 6.81399 40.4184 0 28.5 0C16.5816 0 8.47009 6.81399 3.63344 12.8244C1.21114 15.8345 0 17.3395 0 21.8086ZM28.5 11.5858C22.5975 11.5858 17.8125 16.1627 17.8125 21.8086C17.8125 27.4546 22.5975 32.0314 28.5 32.0314C34.4026 32.0314 39.1875 27.4546 39.1875 21.8086C39.1875 16.1627 34.4026 11.5858 28.5 11.5858Z" fill="white"/>
<path d="M21 21.9391C21 18.1069 24.358 15 28.5 15C32.642 15 36 18.1069 36 21.9391C36 25.7713 32.642 28.8782 28.5 28.8782C24.358 28.8782 21 25.7713 21 21.9391Z" fill="white"/>
</svg>
