<svg width="36" height="35" viewBox="0 0 36 35" fill="none" xmlns="http://www.w3.org/2000/svg">
<path d="M3.9862 18.303C2.0009 18.0757 2.03317 16.0871 4.07228 13" stroke="#DD696E" stroke-width="3.75" stroke-linecap="round"/>
<path d="M29 2.39925C30.453 1.37481 31.953 2.35008 33 5" stroke="#DD696E" stroke-width="3.75" stroke-linecap="round"/>
<path d="M19.7271 15.653C20.0266 16.2544 20.6858 16.4576 21.1993 16.1069C21.7129 15.7563 21.8865 14.9845 21.587 14.3832L19.7271 15.653ZM15.5954 20.0352C15.8949 20.6365 16.5541 20.8397 17.0677 20.489C17.5813 20.1384 17.7549 19.3667 17.4554 18.7652L15.5954 20.0352ZM27.8097 16.7016L28.3439 17.796C28.5932 17.6291 28.7752 17.3527 28.8496 17.028C28.924 16.7031 28.8843 16.3571 28.7397 16.0667L27.8097 16.7016ZM29.1988 9.31507C29.4982 9.91642 30.1574 10.1196 30.6711 9.76897C31.1847 9.41829 31.3582 8.64653 31.0586 8.04519L29.1988 9.31507ZM24.5607 25.3582C24.8603 25.9595 25.5194 26.1626 26.033 25.8121C26.5467 25.4613 26.7202 24.6896 26.4207 24.0883L24.5607 25.3582ZM33.9811 13.9127C33.6815 13.3114 33.0224 13.1082 32.5088 13.4588C31.9952 13.8095 31.8217 14.5812 32.1211 15.1826L33.9811 13.9127ZM17.6751 33.5599C18.1969 33.8937 18.8509 33.669 19.136 33.0581C19.4211 32.4472 19.2293 31.6815 18.7075 31.3478L17.6751 33.5599ZM24.7111 32.4928C24.1232 32.5959 23.718 33.2378 23.8061 33.9261C23.8943 34.6147 24.4423 35.0891 25.0304 34.9859L24.7111 32.4928ZM11.0664 14.8002C11.9759 14.1916 12.8713 14.5657 13.1786 15.1826L15.0385 13.9127C14.011 11.8496 11.704 11.47 9.99805 12.6115L11.0664 14.8002ZM9.99805 12.6115C8.28873 13.7553 7.40987 16.2778 8.44275 18.3516L10.3027 17.0818C10.0008 16.4756 10.1601 15.4066 11.0664 14.8002L9.99805 12.6115ZM14.8934 5.94793L16.1018 8.37421L17.9617 7.10433L16.7533 4.67804L14.8934 5.94793ZM16.1018 8.37421L19.7271 15.653L21.587 14.3832L17.9617 7.10433L16.1018 8.37421ZM17.4554 18.7652L15.0385 13.9127L13.1786 15.1826L15.5954 20.0352L17.4554 18.7652ZM15.0385 13.9127L12.0175 7.84703L10.1575 9.11692L13.1786 15.1826L15.0385 13.9127ZM12.7812 5.56553C13.6907 4.9569 14.5861 5.33104 14.8934 5.94793L16.7533 4.67804C15.7258 2.61495 13.4188 2.23533 11.7128 3.37687L12.7812 5.56553ZM11.7128 3.37687C10.0035 4.52066 9.12467 7.04309 10.1575 9.11692L12.0175 7.84703C11.7156 7.24086 11.8749 6.17194 12.7812 5.56553L11.7128 3.37687ZM20.8376 5.20523L24.463 12.4841L26.3229 11.2142L22.6976 3.93534L20.8376 5.20523ZM24.463 12.4841L26.8798 17.3365L28.7397 16.0667L26.3229 11.2142L24.463 12.4841ZM18.7255 4.82283C19.6351 4.2142 20.5305 4.58833 20.8376 5.20523L22.6976 3.93534C21.67 1.87225 19.3631 1.49262 17.6571 2.63416L18.7255 4.82283ZM17.6571 2.63416C15.9478 3.77796 15.0689 6.30038 16.1018 8.37421L17.9617 7.10433C17.6598 6.49816 17.8192 5.42923 18.7255 4.82283L17.6571 2.63416ZM27.0865 8.93267C27.9961 8.32405 28.8915 8.69818 29.1988 9.31507L31.0586 8.04519C30.0312 5.98211 27.7243 5.60247 26.0182 6.74403L27.0865 8.93267ZM26.0182 6.74403C24.3089 7.8878 23.4301 10.4102 24.463 12.4841L26.3229 11.2142C26.0209 10.608 26.1804 9.53908 27.0865 8.93267L26.0182 6.74403ZM8.44275 18.3516L13.8806 29.2699L15.7406 27.9999L10.3027 17.0818L8.44275 18.3516ZM32.824 16.5939C35.1281 21.22 33.4114 27.676 28.5818 30.9076L29.6501 33.0964C35.2828 29.3274 37.7191 21.4178 34.684 15.324L32.824 16.5939ZM26.4207 24.0883C25.4513 22.142 26.1299 19.2774 28.3439 17.796L27.2756 15.6073C24.2586 17.6263 22.8605 21.9444 24.5607 25.3582L26.4207 24.0883ZM32.1211 15.1826L32.824 16.5939L34.684 15.324L33.9811 13.9127L32.1211 15.1826ZM18.7075 31.3478C17.4836 30.5648 16.4569 29.4383 15.7406 27.9999L13.8806 29.2699C14.8065 31.1288 16.1289 32.5707 17.6751 33.5599L18.7075 31.3478ZM28.5818 30.9076C27.3336 31.7429 26.0166 32.2637 24.7111 32.4928L25.0304 34.9859C26.5986 34.7106 28.1698 34.087 29.6501 33.0964L28.5818 30.9076Z" fill="#DD696E"/>
</svg>
