<svg width="52" height="44" viewBox="0 0 52 44" fill="none" xmlns="http://www.w3.org/2000/svg">
<path fill-rule="evenodd" clip-rule="evenodd" d="M10.5268 4.44098C6.53446 6.22292 3.60971 10.4613 3.60971 15.5155C3.60971 20.679 5.77365 24.6589 8.87576 28.0699C11.4325 30.881 14.5275 33.2108 17.5459 35.4831C18.2628 36.0228 18.9754 36.5593 19.6754 37.0981C20.9413 38.0726 22.0705 38.9277 23.1589 39.5487C24.2478 40.1703 25.1245 40.4539 25.8696 40.4539C26.6146 40.4539 27.4913 40.1703 28.5802 39.5487C29.6687 38.9277 30.7978 38.0726 32.0638 37.0981C32.7639 36.5593 33.4764 36.0228 34.1933 35.4831C37.2117 33.2108 40.3067 30.881 42.8633 28.0699C45.9655 24.6589 48.1294 20.679 48.1294 15.5155C48.1294 10.4613 45.2046 6.22292 41.2123 4.44098C37.3338 2.70984 32.1223 3.16829 27.17 8.19259C26.8297 8.53776 26.3602 8.73279 25.8696 8.73279C25.3789 8.73279 24.9094 8.53776 24.5691 8.19259C19.6167 3.16829 14.4053 2.70984 10.5268 4.44098ZM25.8696 4.52236C20.3057 -0.33844 14.0754 -1.01841 9.0261 1.23528C3.69324 3.61556 0 9.1426 0 15.5155C0 21.7789 2.67239 26.5573 6.17674 30.4103C8.98304 33.4958 12.4179 36.0785 15.4515 38.3593C16.1392 38.8762 16.8063 39.3779 17.4407 39.8662C18.6734 40.8151 19.9967 41.8269 21.3377 42.592C22.6783 43.3569 24.2081 43.9786 25.8696 43.9786C27.531 43.9786 29.0608 43.3569 30.4014 42.592C31.7426 41.8269 33.0656 40.8151 34.2985 39.8662C34.9328 39.3779 35.5999 38.8762 36.2877 38.3593C39.3213 36.0785 42.756 33.4958 45.5624 30.4103C49.0667 26.5573 51.7391 21.7789 51.7391 15.5155C51.7391 9.1426 48.0459 3.61556 42.7129 1.23528C37.6637 -1.01841 31.4336 -0.33844 25.8696 4.52236Z" fill="white"/>
</svg>
