<svg width="130" height="121" viewBox="0 0 130 121" fill="none" xmlns="http://www.w3.org/2000/svg">
<path fill-rule="evenodd" clip-rule="evenodd" d="M2.17633 10.658C-0.208349 8.32405 -0.221821 4.52677 2.14621 2.17647C4.5143 -0.173828 8.36714 -0.187082 10.7518 2.14679C36.7362 27.5779 56.4904 58.0839 68.2487 94.9364C69.1298 93.2422 70.0724 91.4975 71.0612 89.7265C70.2677 88.4497 69.7054 87.0037 69.4401 85.436L68.0454 77.1897C63.7481 51.7753 80.5838 27.5531 106.181 22.3225L112.813 20.9674C119.44 19.613 125.916 23.8489 127.224 30.3944L128.703 37.7948C134.007 64.3338 116.014 89.9454 88.9435 94.3924L83.4456 95.2951C82.8779 95.3886 82.3132 95.4414 81.7534 95.4564C79.6327 99.2503 77.7798 102.84 76.3431 105.97C75.2995 108.245 74.5169 110.19 74.0107 111.742C73.7587 112.515 73.5944 113.131 73.4977 113.601C73.4137 114.012 73.4015 114.212 73.3997 114.246C73.4472 116.824 71.8176 119.142 69.3525 120.006C66.888 120.869 64.1394 120.083 62.5262 118.054L8.86637 50.5842C6.79311 47.9774 7.25661 44.2077 9.90163 42.1644C12.5466 40.121 16.3715 40.5778 18.4448 43.1847L51.9517 85.3155C40.5708 56.2343 23.6268 31.6517 2.17633 10.658ZM89.8934 81.954C108.533 77.3306 120.544 59.0357 116.762 40.1126L115.284 32.7123L108.652 34.0674C89.5502 37.9707 76.954 55.9753 80.0033 74.9311C85.6138 66.2901 91.607 58.1547 96.3874 53.2327C98.7113 50.8397 102.564 50.757 104.991 53.0473C107.419 55.3383 107.503 59.1347 105.179 61.527C101.037 65.7911 95.3688 73.4731 89.8934 81.954Z" fill="white"/>
</svg>
