<svg width="138" height="129" viewBox="0 0 138 129" fill="none" xmlns="http://www.w3.org/2000/svg">
<path fill-rule="evenodd" clip-rule="evenodd" d="M79.777 16.1573C69.6288 12.4275 56.8769 11.9756 44.9546 17.5318C33.1456 23.0351 25.4516 32.6806 20.648 46.086C15.7905 59.6416 14.0579 76.6244 14.0579 95.9094C14.0579 100.278 16.4716 105.189 20.7069 109.136C24.9422 113.084 30.2113 115.334 34.899 115.334C54.9268 115.334 73.144 113.764 87.8599 109.248C102.449 104.772 113.076 97.5805 118.999 86.5401C124.989 75.3735 124.649 63.4344 120.743 53.9952C119.015 49.819 116.714 46.373 114.151 43.7253L118.13 62.2677C118.883 65.7737 116.443 69.1851 112.68 69.8863C108.918 70.5875 105.258 68.3136 104.506 64.807L101.844 52.405L96.8251 62.9294C95.2668 66.1971 91.1611 67.6688 87.6557 66.2165C84.1495 64.7643 82.5704 60.9378 84.1287 57.6708L90.6867 43.9183L75.9305 50.0303C72.4243 51.4824 68.3193 50.0108 66.7611 46.7432C65.2029 43.4755 66.7819 39.6494 70.2881 38.1972L81.5812 33.5196L68.2735 31.0389C64.5109 30.3375 62.0712 26.9265 62.8235 23.4202C63.5759 19.9139 67.2363 17.64 70.9981 18.3413L90.3226 21.9435C87.5424 19.7276 84.0078 17.7121 79.777 16.1573ZM116.693 28.8368C124.287 33.3594 130.225 40.9223 133.706 49.3362C138.88 61.8397 139.329 77.5994 131.425 92.331C123.363 107.36 109.129 116.355 92.2053 121.547C75.4095 126.701 55.4627 128.283 34.899 128.283C25.6925 128.283 17.0675 124.058 10.8823 118.293C4.69703 112.528 0.163818 104.49 0.163818 95.9094C0.163818 76.1375 1.90551 57.5115 7.46945 41.9841C13.0872 26.307 22.7617 13.3966 38.7407 5.94992C54.6064 -1.44395 71.5108 -0.800442 84.8748 4.11102C93.8059 7.39368 101.864 12.8947 106.741 19.7986L113.351 13.6381C116.063 11.1095 120.462 11.1093 123.175 13.6376C125.889 16.1659 125.889 20.2653 123.176 22.794L116.693 28.8368ZM76.5828 95.9101C76.5828 99.486 73.4726 102.385 69.6358 102.385C65.7989 102.385 62.6887 99.486 62.6887 95.9101C62.6887 92.3342 65.7989 89.4355 69.6358 89.4355C73.4726 89.4355 76.5828 92.3342 76.5828 95.9101ZM104.371 89.4355C108.208 89.4355 111.318 86.5369 111.318 82.961C111.318 79.3851 108.208 76.4864 104.371 76.4864C100.534 76.4864 97.4239 79.3851 97.4239 82.961C97.4239 86.5369 100.534 89.4355 104.371 89.4355ZM69.6358 70.0119C69.6358 73.5878 66.5256 76.4864 62.6887 76.4864C58.8519 76.4864 55.7417 73.5878 55.7417 70.0119C55.7417 66.436 58.8519 63.5374 62.6887 63.5374C66.5256 63.5374 69.6358 66.436 69.6358 70.0119ZM34.9006 70.0119C38.7373 70.0119 41.8477 67.1132 41.8477 63.5374C41.8477 59.9615 38.7373 57.0628 34.9006 57.0628C31.0639 57.0628 27.9536 59.9615 27.9536 63.5374C27.9536 67.1132 31.0639 70.0119 34.9006 70.0119ZM41.8477 95.9101C41.8477 99.486 38.7373 102.385 34.9006 102.385C31.0639 102.385 27.9536 99.486 27.9536 95.9101C27.9536 92.3342 31.0639 89.4355 34.9006 89.4355C38.7373 89.4355 41.8477 92.3342 41.8477 95.9101ZM48.7947 37.6391C52.6314 37.6391 55.7417 34.7404 55.7417 31.1646C55.7417 27.5888 52.6314 24.69 48.7947 24.69C44.958 24.69 41.8477 27.5888 41.8477 31.1646C41.8477 34.7404 44.958 37.6391 48.7947 37.6391Z" fill="white"/>
</svg>
